<svg width="312" height="27" viewBox="0 0 312 27" fill="none" xmlns="http://www.w3.org/2000/svg">
<path d="M220.176 26.487L233.475 26.487V0L220.176 0V26.487ZM153.227 1.431L139.648 12.1635C139.163 12.5712 138.902 12.8925 138.902 13.2435C138.902 13.5932 139.162 13.9131 139.648 14.3222L153.225 25.0574C154.646 26.1657 155.619 26.487 157.712 26.487L202.442 26.487V17.5311L161.155 17.5311L155.321 13.2435L161.155 8.9559L202.443 8.9559V0L157.715 0C155.619 0 154.649 0.32265 153.227 1.431ZM49.2165 25.0587L62.7933 14.3235C63.2783 13.9144 63.5399 13.5945 63.5399 13.2435C63.5399 12.8939 63.28 12.5726 62.7933 12.1635L49.2165 1.431C47.7961 0.3213 46.8226 0 44.7301 0L0 0L0 8.9559L41.2883 8.9559L47.1223 13.2435L41.2883 17.5325L0 17.5325L0 26.4884L44.7284 26.4884C46.8243 26.4884 47.7943 26.1671 49.2165 25.0587ZM294.502 26.4884L311.793 26.4884L279.181 0.6048C278.661 0.20115 278.252 0 277.805 0C277.36 0 276.95 0.2025 276.43 0.6048L243.818 26.487L260.962 26.487L277.695 13.0693L294.502 26.4884ZM117.179 26.4884L134.469 26.4884L101.859 0.6048C101.34 0.20115 100.929 0 100.482 0C100.037 0 99.6281 0.2025 99.1067 0.6048L66.4984 26.487L83.6401 26.487L100.373 13.0693L117.18 26.487L117.179 26.4884Z" fill="#646B52"/>
</svg>
