<?xml version="1.0" encoding="utf-8"?>
<!DOCTYPE svg PUBLIC "-//W3C//DTD SVG 1.0//EN" "http://www.w3.org/TR/2001/REC-SVG-20010904/DTD/svg10.dtd">
<svg xmlns="http://www.w3.org/2000/svg" xml:space="preserve" xmlns:xlink="http://www.w3.org/1999/xlink" width="660" height="660" viewBox="0 0 660 660">
<desc></desc>
<rect width="660" height="660" fill="#ffffff" cx="0" cy="0" />
<defs>
<rect id="p" width="20" height="20" />
</defs>
<g fill="#000000">
<use x="80" y="80" xlink:href="#p" />
<use x="100" y="80" xlink:href="#p" />
<use x="120" y="80" xlink:href="#p" />
<use x="140" y="80" xlink:href="#p" />
<use x="160" y="80" xlink:href="#p" />
<use x="180" y="80" xlink:href="#p" />
<use x="200" y="80" xlink:href="#p" />
<use x="240" y="80" xlink:href="#p" />
<use x="260" y="80" xlink:href="#p" />
<use x="280" y="80" xlink:href="#p" />
<use x="320" y="80" xlink:href="#p" />
<use x="340" y="80" xlink:href="#p" />
<use x="380" y="80" xlink:href="#p" />
<use x="400" y="80" xlink:href="#p" />
<use x="440" y="80" xlink:href="#p" />
<use x="460" y="80" xlink:href="#p" />
<use x="480" y="80" xlink:href="#p" />
<use x="500" y="80" xlink:href="#p" />
<use x="520" y="80" xlink:href="#p" />
<use x="540" y="80" xlink:href="#p" />
<use x="560" y="80" xlink:href="#p" />
<use x="80" y="100" xlink:href="#p" />
<use x="200" y="100" xlink:href="#p" />
<use x="240" y="100" xlink:href="#p" />
<use x="260" y="100" xlink:href="#p" />
<use x="280" y="100" xlink:href="#p" />
<use x="360" y="100" xlink:href="#p" />
<use x="440" y="100" xlink:href="#p" />
<use x="560" y="100" xlink:href="#p" />
<use x="80" y="120" xlink:href="#p" />
<use x="120" y="120" xlink:href="#p" />
<use x="140" y="120" xlink:href="#p" />
<use x="160" y="120" xlink:href="#p" />
<use x="200" y="120" xlink:href="#p" />
<use x="240" y="120" xlink:href="#p" />
<use x="280" y="120" xlink:href="#p" />
<use x="300" y="120" xlink:href="#p" />
<use x="380" y="120" xlink:href="#p" />
<use x="440" y="120" xlink:href="#p" />
<use x="480" y="120" xlink:href="#p" />
<use x="500" y="120" xlink:href="#p" />
<use x="520" y="120" xlink:href="#p" />
<use x="560" y="120" xlink:href="#p" />
<use x="80" y="140" xlink:href="#p" />
<use x="120" y="140" xlink:href="#p" />
<use x="140" y="140" xlink:href="#p" />
<use x="160" y="140" xlink:href="#p" />
<use x="200" y="140" xlink:href="#p" />
<use x="240" y="140" xlink:href="#p" />
<use x="260" y="140" xlink:href="#p" />
<use x="300" y="140" xlink:href="#p" />
<use x="340" y="140" xlink:href="#p" />
<use x="400" y="140" xlink:href="#p" />
<use x="440" y="140" xlink:href="#p" />
<use x="480" y="140" xlink:href="#p" />
<use x="500" y="140" xlink:href="#p" />
<use x="520" y="140" xlink:href="#p" />
<use x="560" y="140" xlink:href="#p" />
<use x="80" y="160" xlink:href="#p" />
<use x="120" y="160" xlink:href="#p" />
<use x="140" y="160" xlink:href="#p" />
<use x="160" y="160" xlink:href="#p" />
<use x="200" y="160" xlink:href="#p" />
<use x="360" y="160" xlink:href="#p" />
<use x="380" y="160" xlink:href="#p" />
<use x="400" y="160" xlink:href="#p" />
<use x="440" y="160" xlink:href="#p" />
<use x="480" y="160" xlink:href="#p" />
<use x="500" y="160" xlink:href="#p" />
<use x="520" y="160" xlink:href="#p" />
<use x="560" y="160" xlink:href="#p" />
<use x="80" y="180" xlink:href="#p" />
<use x="200" y="180" xlink:href="#p" />
<use x="240" y="180" xlink:href="#p" />
<use x="300" y="180" xlink:href="#p" />
<use x="320" y="180" xlink:href="#p" />
<use x="340" y="180" xlink:href="#p" />
<use x="400" y="180" xlink:href="#p" />
<use x="440" y="180" xlink:href="#p" />
<use x="560" y="180" xlink:href="#p" />
<use x="80" y="200" xlink:href="#p" />
<use x="100" y="200" xlink:href="#p" />
<use x="120" y="200" xlink:href="#p" />
<use x="140" y="200" xlink:href="#p" />
<use x="160" y="200" xlink:href="#p" />
<use x="180" y="200" xlink:href="#p" />
<use x="200" y="200" xlink:href="#p" />
<use x="240" y="200" xlink:href="#p" />
<use x="280" y="200" xlink:href="#p" />
<use x="320" y="200" xlink:href="#p" />
<use x="360" y="200" xlink:href="#p" />
<use x="400" y="200" xlink:href="#p" />
<use x="440" y="200" xlink:href="#p" />
<use x="460" y="200" xlink:href="#p" />
<use x="480" y="200" xlink:href="#p" />
<use x="500" y="200" xlink:href="#p" />
<use x="520" y="200" xlink:href="#p" />
<use x="540" y="200" xlink:href="#p" />
<use x="560" y="200" xlink:href="#p" />
<use x="260" y="220" xlink:href="#p" />
<use x="320" y="220" xlink:href="#p" />
<use x="360" y="220" xlink:href="#p" />
<use x="80" y="240" xlink:href="#p" />
<use x="100" y="240" xlink:href="#p" />
<use x="160" y="240" xlink:href="#p" />
<use x="180" y="240" xlink:href="#p" />
<use x="200" y="240" xlink:href="#p" />
<use x="300" y="240" xlink:href="#p" />
<use x="340" y="240" xlink:href="#p" />
<use x="380" y="240" xlink:href="#p" />
<use x="460" y="240" xlink:href="#p" />
<use x="500" y="240" xlink:href="#p" />
<use x="520" y="240" xlink:href="#p" />
<use x="540" y="240" xlink:href="#p" />
<use x="560" y="240" xlink:href="#p" />
<use x="180" y="260" xlink:href="#p" />
<use x="220" y="260" xlink:href="#p" />
<use x="240" y="260" xlink:href="#p" />
<use x="260" y="260" xlink:href="#p" />
<use x="280" y="260" xlink:href="#p" />
<use x="320" y="260" xlink:href="#p" />
<use x="360" y="260" xlink:href="#p" />
<use x="380" y="260" xlink:href="#p" />
<use x="480" y="260" xlink:href="#p" />
<use x="500" y="260" xlink:href="#p" />
<use x="540" y="260" xlink:href="#p" />
<use x="80" y="280" xlink:href="#p" />
<use x="100" y="280" xlink:href="#p" />
<use x="120" y="280" xlink:href="#p" />
<use x="140" y="280" xlink:href="#p" />
<use x="200" y="280" xlink:href="#p" />
<use x="220" y="280" xlink:href="#p" />
<use x="300" y="280" xlink:href="#p" />
<use x="320" y="280" xlink:href="#p" />
<use x="380" y="280" xlink:href="#p" />
<use x="420" y="280" xlink:href="#p" />
<use x="500" y="280" xlink:href="#p" />
<use x="520" y="280" xlink:href="#p" />
<use x="80" y="300" xlink:href="#p" />
<use x="100" y="300" xlink:href="#p" />
<use x="140" y="300" xlink:href="#p" />
<use x="160" y="300" xlink:href="#p" />
<use x="180" y="300" xlink:href="#p" />
<use x="280" y="300" xlink:href="#p" />
<use x="300" y="300" xlink:href="#p" />
<use x="360" y="300" xlink:href="#p" />
<use x="400" y="300" xlink:href="#p" />
<use x="440" y="300" xlink:href="#p" />
<use x="460" y="300" xlink:href="#p" />
<use x="520" y="300" xlink:href="#p" />
<use x="540" y="300" xlink:href="#p" />
<use x="80" y="320" xlink:href="#p" />
<use x="100" y="320" xlink:href="#p" />
<use x="200" y="320" xlink:href="#p" />
<use x="280" y="320" xlink:href="#p" />
<use x="320" y="320" xlink:href="#p" />
<use x="360" y="320" xlink:href="#p" />
<use x="400" y="320" xlink:href="#p" />
<use x="420" y="320" xlink:href="#p" />
<use x="440" y="320" xlink:href="#p" />
<use x="460" y="320" xlink:href="#p" />
<use x="500" y="320" xlink:href="#p" />
<use x="520" y="320" xlink:href="#p" />
<use x="540" y="320" xlink:href="#p" />
<use x="560" y="320" xlink:href="#p" />
<use x="80" y="340" xlink:href="#p" />
<use x="160" y="340" xlink:href="#p" />
<use x="260" y="340" xlink:href="#p" />
<use x="380" y="340" xlink:href="#p" />
<use x="400" y="340" xlink:href="#p" />
<use x="480" y="340" xlink:href="#p" />
<use x="540" y="340" xlink:href="#p" />
<use x="120" y="360" xlink:href="#p" />
<use x="200" y="360" xlink:href="#p" />
<use x="280" y="360" xlink:href="#p" />
<use x="380" y="360" xlink:href="#p" />
<use x="460" y="360" xlink:href="#p" />
<use x="480" y="360" xlink:href="#p" />
<use x="500" y="360" xlink:href="#p" />
<use x="520" y="360" xlink:href="#p" />
<use x="120" y="380" xlink:href="#p" />
<use x="140" y="380" xlink:href="#p" />
<use x="160" y="380" xlink:href="#p" />
<use x="220" y="380" xlink:href="#p" />
<use x="260" y="380" xlink:href="#p" />
<use x="320" y="380" xlink:href="#p" />
<use x="360" y="380" xlink:href="#p" />
<use x="380" y="380" xlink:href="#p" />
<use x="460" y="380" xlink:href="#p" />
<use x="480" y="380" xlink:href="#p" />
<use x="520" y="380" xlink:href="#p" />
<use x="540" y="380" xlink:href="#p" />
<use x="80" y="400" xlink:href="#p" />
<use x="100" y="400" xlink:href="#p" />
<use x="120" y="400" xlink:href="#p" />
<use x="140" y="400" xlink:href="#p" />
<use x="160" y="400" xlink:href="#p" />
<use x="180" y="400" xlink:href="#p" />
<use x="200" y="400" xlink:href="#p" />
<use x="220" y="400" xlink:href="#p" />
<use x="240" y="400" xlink:href="#p" />
<use x="280" y="400" xlink:href="#p" />
<use x="300" y="400" xlink:href="#p" />
<use x="340" y="400" xlink:href="#p" />
<use x="360" y="400" xlink:href="#p" />
<use x="400" y="400" xlink:href="#p" />
<use x="420" y="400" xlink:href="#p" />
<use x="440" y="400" xlink:href="#p" />
<use x="460" y="400" xlink:href="#p" />
<use x="480" y="400" xlink:href="#p" />
<use x="500" y="400" xlink:href="#p" />
<use x="520" y="400" xlink:href="#p" />
<use x="240" y="420" xlink:href="#p" />
<use x="260" y="420" xlink:href="#p" />
<use x="320" y="420" xlink:href="#p" />
<use x="360" y="420" xlink:href="#p" />
<use x="400" y="420" xlink:href="#p" />
<use x="480" y="420" xlink:href="#p" />
<use x="80" y="440" xlink:href="#p" />
<use x="100" y="440" xlink:href="#p" />
<use x="120" y="440" xlink:href="#p" />
<use x="140" y="440" xlink:href="#p" />
<use x="160" y="440" xlink:href="#p" />
<use x="180" y="440" xlink:href="#p" />
<use x="200" y="440" xlink:href="#p" />
<use x="300" y="440" xlink:href="#p" />
<use x="320" y="440" xlink:href="#p" />
<use x="340" y="440" xlink:href="#p" />
<use x="360" y="440" xlink:href="#p" />
<use x="400" y="440" xlink:href="#p" />
<use x="440" y="440" xlink:href="#p" />
<use x="480" y="440" xlink:href="#p" />
<use x="80" y="460" xlink:href="#p" />
<use x="200" y="460" xlink:href="#p" />
<use x="240" y="460" xlink:href="#p" />
<use x="260" y="460" xlink:href="#p" />
<use x="300" y="460" xlink:href="#p" />
<use x="340" y="460" xlink:href="#p" />
<use x="400" y="460" xlink:href="#p" />
<use x="480" y="460" xlink:href="#p" />
<use x="500" y="460" xlink:href="#p" />
<use x="520" y="460" xlink:href="#p" />
<use x="80" y="480" xlink:href="#p" />
<use x="120" y="480" xlink:href="#p" />
<use x="140" y="480" xlink:href="#p" />
<use x="160" y="480" xlink:href="#p" />
<use x="200" y="480" xlink:href="#p" />
<use x="240" y="480" xlink:href="#p" />
<use x="260" y="480" xlink:href="#p" />
<use x="320" y="480" xlink:href="#p" />
<use x="340" y="480" xlink:href="#p" />
<use x="400" y="480" xlink:href="#p" />
<use x="420" y="480" xlink:href="#p" />
<use x="440" y="480" xlink:href="#p" />
<use x="460" y="480" xlink:href="#p" />
<use x="480" y="480" xlink:href="#p" />
<use x="500" y="480" xlink:href="#p" />
<use x="520" y="480" xlink:href="#p" />
<use x="540" y="480" xlink:href="#p" />
<use x="560" y="480" xlink:href="#p" />
<use x="80" y="500" xlink:href="#p" />
<use x="120" y="500" xlink:href="#p" />
<use x="140" y="500" xlink:href="#p" />
<use x="160" y="500" xlink:href="#p" />
<use x="200" y="500" xlink:href="#p" />
<use x="340" y="500" xlink:href="#p" />
<use x="360" y="500" xlink:href="#p" />
<use x="400" y="500" xlink:href="#p" />
<use x="420" y="500" xlink:href="#p" />
<use x="440" y="500" xlink:href="#p" />
<use x="460" y="500" xlink:href="#p" />
<use x="520" y="500" xlink:href="#p" />
<use x="540" y="500" xlink:href="#p" />
<use x="560" y="500" xlink:href="#p" />
<use x="80" y="520" xlink:href="#p" />
<use x="120" y="520" xlink:href="#p" />
<use x="140" y="520" xlink:href="#p" />
<use x="160" y="520" xlink:href="#p" />
<use x="200" y="520" xlink:href="#p" />
<use x="440" y="520" xlink:href="#p" />
<use x="500" y="520" xlink:href="#p" />
<use x="540" y="520" xlink:href="#p" />
<use x="80" y="540" xlink:href="#p" />
<use x="200" y="540" xlink:href="#p" />
<use x="240" y="540" xlink:href="#p" />
<use x="260" y="540" xlink:href="#p" />
<use x="320" y="540" xlink:href="#p" />
<use x="360" y="540" xlink:href="#p" />
<use x="380" y="540" xlink:href="#p" />
<use x="420" y="540" xlink:href="#p" />
<use x="460" y="540" xlink:href="#p" />
<use x="480" y="540" xlink:href="#p" />
<use x="500" y="540" xlink:href="#p" />
<use x="520" y="540" xlink:href="#p" />
<use x="540" y="540" xlink:href="#p" />
<use x="80" y="560" xlink:href="#p" />
<use x="100" y="560" xlink:href="#p" />
<use x="120" y="560" xlink:href="#p" />
<use x="140" y="560" xlink:href="#p" />
<use x="160" y="560" xlink:href="#p" />
<use x="180" y="560" xlink:href="#p" />
<use x="200" y="560" xlink:href="#p" />
<use x="240" y="560" xlink:href="#p" />
<use x="260" y="560" xlink:href="#p" />
<use x="280" y="560" xlink:href="#p" />
<use x="300" y="560" xlink:href="#p" />
<use x="340" y="560" xlink:href="#p" />
<use x="360" y="560" xlink:href="#p" />
<use x="420" y="560" xlink:href="#p" />
<use x="520" y="560" xlink:href="#p" />
<use x="540" y="560" xlink:href="#p" />
<use x="560" y="560" xlink:href="#p" />
</g>
</svg>